<?xml version="1.0" encoding="UTF-8"?>
<svg version="1.1" xmlns="http://www.w3.org/2000/svg" width="512" height="512">
<path d="M0 0 C1.47537724 -0.02497757 2.95137506 -0.02202998 4.42676544 0.00215912 C5.23983894 -0.0042297 6.05291244 -0.01061852 6.89062452 -0.01720095 C9.62488725 -0.03250533 12.3577135 -0.01195448 15.09192657 0.0083847 C17.04807263 0.00488513 19.00421585 -0.00077159 20.96035004 -0.00843048 C26.28064007 -0.02271167 31.60041534 -0.00558425 36.9206562 0.01785469 C42.48063367 0.03791784 48.04058881 0.0320865 53.60059357 0.02974701 C62.93877433 0.02980063 72.27675309 0.04958698 81.61487579 0.08162689 C92.42072096 0.11852178 103.22630137 0.12730296 114.03220129 0.12032938 C124.41461873 0.1140305 134.7969451 0.12476727 145.17934418 0.14429474 C149.60354151 0.15248295 154.02769239 0.15517568 158.45189667 0.1536026 C163.65905409 0.15272553 168.86595877 0.16689182 174.07304955 0.19282913 C175.98749759 0.20000923 177.90197248 0.20206574 179.81643105 0.1987114 C182.42322891 0.19501432 185.02928188 0.20968183 187.63599396 0.2292099 C188.39950778 0.22388197 189.16302161 0.21855405 189.94967222 0.21306467 C195.01639616 0.27887029 195.01639616 0.27887029 197.50229359 1.94302082 C199.23143844 4.76688347 198.92075496 7.8237756 198.87195587 11.03255463 C198.87239395 11.78401764 198.87283203 12.53548065 198.87328339 13.30971527 C198.87119337 15.79352045 198.84785296 18.27665058 198.82434845 20.76033783 C198.81875324 22.48240541 198.81448279 24.20447776 198.81148529 25.92655182 C198.80003061 30.4591312 198.77055815 34.9914222 198.73737335 39.52388763 C198.70668585 44.14888864 198.69298278 48.77393624 198.67786407 53.3990097 C198.64568898 62.4740062 198.59448515 71.54878866 198.5313797 80.62361908 C199.47529572 80.60186615 200.41921173 80.58011322 201.39173126 80.55770111 C202.6392215 80.54078217 203.88671173 80.52386322 205.1720047 80.50643158 C206.40467072 80.48467865 207.63733673 80.46292572 208.90735626 80.44051361 C214.73779884 80.73509943 220.34413615 82.43637553 224.5313797 86.62361908 C226.4581991 86.92527701 226.4581991 86.92527701 228.69321442 86.87517548 C229.56525513 86.88055832 230.43729584 86.88594116 231.33576202 86.89148712 C232.2947641 86.88736313 233.25376617 86.88323914 234.24182892 86.87899017 C235.25006714 86.88261063 236.25830536 86.88623108 237.29709625 86.88996124 C239.49170652 86.89686758 241.68633402 86.89935837 243.88095474 86.89801407 C247.35204267 86.89705215 250.82281807 86.90995129 254.29386139 86.92699432 C264.16451331 86.97336993 274.03513439 86.99787928 283.90589142 87.00447845 C289.93834559 87.00948491 295.97047481 87.03369268 302.00281906 87.06980515 C304.3049309 87.07962499 306.60708732 87.08192326 308.90921402 87.07663345 C312.12721116 87.06958663 315.3442362 87.08679717 318.56214142 87.10945892 C319.51709503 87.10128647 320.47204865 87.09311401 321.45594025 87.08469391 C322.77246078 87.10122765 322.77246078 87.10122765 324.1155777 87.1180954 C325.25654813 87.1197297 325.25654813 87.1197297 326.42056847 87.12139702 C329.43574136 87.83879245 330.57559501 89.2542115 332.5313797 91.62361908 C333.03277636 94.10353947 333.03277636 94.10353947 333.03474426 96.94602203 C333.04517525 98.03137206 333.05560624 99.11672209 333.06635332 100.23496151 C333.05743043 101.42677564 333.04850755 102.61858976 333.03931427 103.84651947 C333.04867421 105.74626447 333.04867421 105.74626447 333.05822325 107.68438816 C333.07495075 111.20225992 333.06665505 114.7196987 333.05427837 118.23757219 C333.04524404 122.03041833 333.05918954 125.82318897 333.07019806 129.6160202 C333.08800524 137.04713004 333.08413356 144.47807848 333.0725475 151.90919471 C333.06352207 157.94740867 333.06228531 163.98557732 333.06664276 170.02379608 C333.06725569 170.88246121 333.06786863 171.74112635 333.06850013 172.62581164 C333.069779 174.37005259 333.07107586 176.11429353 333.0723905 177.85853446 C333.08380273 194.22281462 333.07067251 210.58700522 333.04918903 226.9512707 C333.03131746 240.99932492 333.03442138 255.04724693 333.05286407 269.09529877 C333.07425944 285.40013145 333.08270404 301.70488558 333.07041502 318.00973034 C333.06914079 319.74763424 333.06788331 321.48553815 333.06664276 323.22344208 C333.06571711 324.50613915 333.06571711 324.50613915 333.06477275 325.8147493 C333.06131585 331.84725995 333.06715553 337.87972087 333.07656097 343.91222382 C333.08776754 351.26164661 333.08476931 358.61089848 333.063438 365.96030164 C333.05290935 369.71171431 333.0488363 373.46284177 333.06203461 377.21425247 C333.07611114 381.27665732 333.0593294 385.33833903 333.03931427 389.40071869 C333.0526986 391.18843988 333.0526986 391.18843988 333.06635332 393.01227665 C333.05070684 394.64030169 333.05070684 394.64030169 333.03474426 396.30121613 C333.03409485 397.23923537 333.03344544 398.17725462 333.03277636 399.14369869 C332.37421742 402.40094766 331.1178771 403.59786794 328.5313797 405.62361908 C325.33738327 406.11581039 325.33738327 406.11581039 321.48261261 406.10463715 C320.77274035 406.10805485 320.06286809 406.11147254 319.33148456 406.11499381 C316.95271852 406.12158276 314.57508082 406.0995814 312.19641876 406.07772064 C310.4914172 406.07659238 308.7864137 406.07722562 307.08141327 406.07949066 C302.45146261 406.08063956 297.82192543 406.05710189 293.19207096 406.02919483 C288.35408429 406.00421042 283.51608841 406.00184152 278.67804718 405.9970932 C269.51597811 405.98465472 260.35409967 405.95182129 251.19211459 405.91169524 C240.76177561 405.86700469 230.33142758 405.84499733 219.90101671 405.8249135 C198.44436459 405.78308944 176.98788415 405.7127204 155.5313797 405.62361908 C155.57589836 410.97698811 155.64610738 416.32921836 155.73889923 421.68196869 C155.76691435 423.49828213 155.78822444 425.31471308 155.80237579 427.13118744 C155.7314803 444.54688738 155.7314803 444.54688738 163.7188797 459.56111908 C172.41616334 467.1893805 181.84148607 467.21906592 192.8438797 467.24861908 C195.0250067 467.26501672 197.2057116 467.28709552 199.38665009 467.32024384 C201.35182658 467.34865854 203.31724041 467.35896618 205.2826004 467.36824799 C208.3322694 467.60796797 210.03221379 467.91483275 212.5313797 469.62361908 C214.70284775 473.96655518 213.76104826 479.79085468 213.7813797 484.56111908 C213.8123172 486.36999603 213.8123172 486.36999603 213.8438797 488.21541595 C213.84903595 489.36977142 213.8541922 490.52412689 213.8595047 491.71346283 C213.8688504 492.7742807 213.87819611 493.83509857 213.88782501 494.92806244 C213.4736007 498.06056288 212.96006714 498.71021905 210.5313797 500.62361908 C207.50027994 500.91873743 204.67459417 501.02802064 201.64220428 501.00457001 C200.72225286 501.00924998 199.80230144 501.01392995 198.8544727 501.01875174 C195.75891861 501.03075794 192.66380264 501.02122255 189.56824493 501.01180267 C187.35432424 501.01586584 185.14040558 501.02120628 182.92649078 501.02773285 C176.90394863 501.04144169 170.88156017 501.03609326 164.85901523 501.02659559 C158.56718696 501.01901842 152.27537216 501.0260391 145.9835434 501.03075409 C134.73974565 501.03656715 123.49601148 501.02722514 112.25222868 501.01197608 C102.05072931 500.99856915 91.84933231 501.00090312 81.64783478 501.01473236 C69.80853117 501.03077425 57.96927718 501.03676997 46.1299606 501.02789557 C39.86002426 501.02320856 33.59015852 501.02262242 27.32022667 501.03250504 C21.42775925 501.04114346 15.53548604 501.03521013 9.6430397 501.01782227 C7.47499095 501.01384085 5.30692598 501.01501953 3.13888359 501.02161026 C0.1902223 501.02975055 -2.75780796 501.01959569 -5.70642853 501.00457001 C-6.57401985 501.01126217 -7.44161118 501.01795434 -8.33549315 501.0248493 C-10.71699619 501.0011425 -10.71699619 501.0011425 -14.4686203 500.62361908 C-17.78359153 495.65116223 -16.83759183 489.96521131 -16.8436203 484.12361908 C-16.88035858 482.24996674 -16.88035858 482.24996674 -16.91783905 480.33846283 C-16.92170624 479.14350189 -16.92557343 477.94854095 -16.9295578 476.71736908 C-16.93777557 475.62102142 -16.94599335 474.52467377 -16.95446014 473.39510345 C-16.4686203 470.62361908 -16.4686203 470.62361908 -14.89342499 468.7637558 C-11.56252884 467.19757728 -8.88667373 467.27170947 -5.2108078 467.28768158 C-3.76549092 467.27515681 -2.3201784 467.26211916 -0.8748703 467.24861908 C1.38277896 467.24471311 3.63998473 467.24851192 5.89759064 467.26326752 C15.25012358 467.3002991 22.37848373 466.67567234 30.5313797 461.62361908 C31.5213797 461.29361908 32.5113797 460.96361908 33.5313797 460.62361908 C34.65185912 458.78972085 34.65185912 458.78972085 35.5313797 456.62361908 C35.87298126 455.96361908 36.21458282 455.30361908 36.56653595 454.62361908 C36.90555939 453.96361908 37.24458282 453.30361908 37.5938797 452.62361908 C37.93548126 451.96361908 38.27708282 451.30361908 38.62903595 450.62361908 C40.12545784 447.30687446 40.65438249 444.21149613 40.73670197 440.58943939 C40.75664719 439.80893219 40.77659241 439.02842499 40.79714203 438.22426605 C40.81385452 437.3918338 40.83056702 436.55940155 40.84778595 435.70174408 C40.8789576 434.41176514 40.8789576 434.41176514 40.91075897 433.09572601 C40.97601709 430.3551031 41.03502887 427.61438633 41.0938797 424.87361908 C41.13708751 423.01293238 41.18070252 421.1522551 41.22473907 419.29158783 C41.33167412 414.73569385 41.43300821 410.17970568 41.5313797 405.62361908 C40.64347118 405.62730625 39.75556267 405.63099342 38.84074783 405.63479233 C17.25034611 405.72307428 -4.34002456 405.78929503 -25.9305687 405.83086777 C-36.37154109 405.85150566 -46.81239312 405.8796497 -57.25328827 405.92537689 C-66.35204801 405.96520709 -75.45072058 405.99104296 -84.54956508 405.99997306 C-89.36875492 406.00519428 -94.18769539 406.01749148 -99.00680542 406.04653931 C-103.54087665 406.07364812 -108.07459528 406.08207329 -112.60873985 406.0760498 C-114.27446342 406.07715208 -115.94019853 406.08513303 -117.60585213 406.10044098 C-119.87762148 406.12029878 -122.14805391 406.11557479 -124.41985321 406.10463715 C-126.32796469 406.1101679 -126.32796469 406.1101679 -128.27462387 406.11581039 C-132.1398403 405.52018482 -133.06724469 404.64119255 -135.4686203 401.62361908 C-135.97001696 399.14369869 -135.97001696 399.14369869 -135.97198486 396.30121613 C-135.98241585 395.2158661 -135.99284684 394.13051607 -136.00359392 393.01227665 C-135.99467103 391.82046252 -135.98574815 390.6286484 -135.97655487 389.40071869 C-135.98279483 388.13422202 -135.9890348 386.86772535 -135.99546385 385.56285 C-136.01219135 382.04497824 -136.00389565 378.52753946 -135.99151897 375.00966597 C-135.98248464 371.21681983 -135.99643014 367.42404919 -136.00743866 363.63121796 C-136.02524584 356.20010812 -136.02137416 348.76915967 -136.0097881 341.33804345 C-136.00076267 335.29982949 -135.99952591 329.26166084 -136.00388336 323.22344208 C-136.00449629 322.36477694 -136.00510923 321.50611181 -136.00574073 320.62142652 C-136.0070196 318.87718557 -136.00831646 317.13294463 -136.0096311 315.3887037 C-136.02104333 299.02442354 -136.00791312 282.66023294 -135.98642963 266.29596746 C-135.96855806 252.24791324 -135.97166198 238.19999122 -135.99010468 224.15193939 C-136.01150004 207.84710671 -136.01994464 191.54235257 -136.00765562 175.23750782 C-136.00638139 173.49960392 -136.00512391 171.76170001 -136.00388336 170.02379608 C-136.00326626 169.1686647 -136.00264916 168.31353331 -136.00201336 167.43248886 C-135.99855645 161.39997821 -136.00439613 155.36751729 -136.01380157 149.33501434 C-136.02500814 141.98559155 -136.02200991 134.63633968 -136.0006786 127.28693652 C-135.99014995 123.53552385 -135.9860769 119.78439639 -135.99927521 116.03298569 C-136.01335174 111.97058084 -135.99657 107.90889913 -135.97655487 103.84651947 C-135.98547776 102.65470534 -135.99440064 101.46289122 -136.00359392 100.23496151 C-135.99316293 99.14961148 -135.98273194 98.06426146 -135.97198486 96.94602203 C-135.97133545 96.00800279 -135.97068604 95.06998354 -135.97001696 94.10353947 C-135.30778551 90.82812618 -134.09350546 89.63772986 -131.4686203 87.62361908 C-128.43881923 87.24971541 -125.7788554 87.11690777 -122.75279999 87.16951752 C-121.87439453 87.16893341 -120.99598907 87.1683493 -120.09096527 87.1677475 C-117.19040524 87.17053203 -114.29087558 87.20164138 -111.3904953 87.23299408 C-109.37839571 87.24045516 -107.36628884 87.24614872 -105.35417938 87.25014496 C-100.06037557 87.26541172 -94.76701129 87.30470275 -89.47338104 87.34896088 C-84.07081295 87.38989096 -78.66817378 87.40815115 -73.2654953 87.42830658 C-62.66634394 87.4711958 -52.06751868 87.53945994 -41.4686203 87.62361908 C-41.41383514 86.94960052 -41.35904999 86.27558197 -41.30260468 85.58113861 C-41.22332733 84.69023529 -41.14404999 83.79933197 -41.0623703 82.88143158 C-40.94925507 81.56102875 -40.94925507 81.56102875 -40.83385468 80.21395111 C-39.78184469 72.75283753 -35.5509843 68.02180438 -29.8826828 63.32283783 C-24.1890508 59.31518424 -19.06805459 58.4856376 -12.17565155 58.56111908 C-11.10419891 58.57014252 -10.03274628 58.57916595 -8.92882538 58.58846283 C-7.71102386 58.60586517 -7.71102386 58.60586517 -6.4686203 58.62361908 C-6.47861305 57.64429161 -6.47861305 57.64429161 -6.48880768 56.64517975 C-6.55519255 49.84824804 -6.60043417 43.05140849 -6.63341522 36.25423431 C-6.64849893 33.71773793 -6.66896861 31.1812676 -6.69493866 28.64485931 C-6.73133911 24.99839086 -6.74835112 21.35226735 -6.76158905 17.70565033 C-6.77707291 16.57214645 -6.79255676 15.43864258 -6.80850983 14.2707901 C-6.80884972 12.6797068 -6.80884972 12.6797068 -6.80919647 11.05648041 C-6.81918922 9.66082603 -6.81918922 9.66082603 -6.82938385 8.23697662 C-6.15460005 3.34886822 -5.05329034 0.908525 0 0 Z M7.5313797 13.62361908 C7.5313797 70.05361908 7.5313797 126.48361908 7.5313797 184.62361908 C22.85759008 186.4754729 22.85759008 186.4754729 28.9063797 179.43611908 C30.25849567 177.73614081 30.25849567 177.73614081 31.24622345 176.10408783 C33.11086657 173.2346048 35.10212987 170.5319487 37.21643829 167.84236908 C38.48725244 166.2252395 39.735795 164.59286371 40.98059845 162.95565033 C43.98799529 159.01472424 47.053501 155.12038313 50.12903595 151.2325058 C52.85312405 147.78244056 55.5398689 144.30739991 58.19934845 140.80721283 C58.82486603 139.98889984 59.45038361 139.17058685 60.09485626 138.3274765 C61.3231501 136.71914126 62.54539417 135.10616365 63.76087189 133.48812103 C64.3232254 132.75424164 64.88557892 132.02036224 65.46497345 131.26424408 C66.2083194 130.28246185 66.2083194 130.28246185 66.96668243 129.28084564 C69.27237951 126.8387998 71.43984354 125.75019198 74.78833389 125.36190605 C76.03275442 125.35360991 76.03275442 125.35360991 77.30231476 125.34514618 C78.25861282 125.3339827 79.21491089 125.32281921 80.20018768 125.31131744 C81.24244003 125.30915726 82.28469238 125.30699707 83.35852814 125.30477142 C84.46126572 125.2947258 85.5640033 125.28468018 86.70015717 125.27433014 C90.34701768 125.24342629 93.99380454 125.22644277 97.6407547 125.20955658 C100.16853217 125.19085075 102.69630337 125.17127779 105.22406769 125.15087128 C111.19858353 125.10473551 117.17309224 125.0673495 123.1476891 125.0341984 C131.81182294 124.98550247 140.47582429 124.91911589 149.13985443 124.85488129 C161.27032222 124.76658673 173.40076983 124.69688087 185.5313797 124.62361908 C185.5313797 87.99361908 185.5313797 51.36361908 185.5313797 13.62361908 C126.7913797 13.62361908 68.0513797 13.62361908 7.5313797 13.62361908 Z M-23.4686203 75.62361908 C-28.81594615 82.06783228 -28.61406767 88.21060071 -28.58214569 96.18733978 C-28.58229172 97.14391983 -28.58243774 98.10049988 -28.5825882 99.0860672 C-28.58189283 102.24053483 -28.574118 105.39494304 -28.56627655 108.54940033 C-28.56441104 110.73943805 -28.56298776 112.92947618 -28.56198883 115.11951447 C-28.55817417 120.87836106 -28.54835283 126.63718237 -28.53728485 132.39601898 C-28.52704816 138.27461658 -28.52248637 144.15321826 -28.51744843 150.0318222 C-28.50672963 161.56243405 -28.48914131 173.0930205 -28.4686203 184.62361908 C-21.2086203 184.62361908 -13.9486203 184.62361908 -6.4686203 184.62361908 C-6.4686203 147.33361908 -6.4686203 110.04361908 -6.4686203 71.62361908 C-15.93103927 71.46706279 -15.93103927 71.46706279 -23.4686203 75.62361908 Z M198.5313797 93.62361908 C198.5313797 103.85361908 198.5313797 114.08361908 198.5313797 124.62361908 C205.7913797 124.62361908 213.0513797 124.62361908 220.5313797 124.62361908 C220.6138797 121.28236908 220.6963797 117.94111908 220.7813797 114.49861908 C220.83600372 112.93603363 220.83600372 112.93603363 220.89173126 111.3418808 C220.96245103 105.41168569 220.45593816 102.14302743 216.5313797 97.62361908 C210.6831562 92.48427115 207.07086236 93.62361908 198.5313797 93.62361908 Z M-122.4686203 100.62361908 C-122.4686203 196.98361908 -122.4686203 293.34361908 -122.4686203 392.62361908 C23.3913797 392.62361908 169.2513797 392.62361908 319.5313797 392.62361908 C319.5313797 296.26361908 319.5313797 199.90361908 319.5313797 100.62361908 C291.1513797 100.62361908 262.7713797 100.62361908 233.5313797 100.62361908 C233.5313797 108.54361908 233.5313797 116.46361908 233.5313797 124.62361908 C236.1507547 124.72674408 238.7701297 124.82986908 241.4688797 124.93611908 C256.72688289 125.74900985 256.72688289 125.74900985 262.0313797 131.18611908 C267.61015075 140.25162204 263.79023176 152.02453296 261.84095001 161.882164 C261.55103104 163.38786576 261.26198297 164.89373542 260.97373199 166.39975739 C260.19388751 170.45928053 259.40112054 174.51617559 258.60523319 178.5725801 C257.94013923 181.96897656 257.28160461 185.36663114 256.62307239 188.76430494 C255.06917358 196.78131728 253.50490364 204.79625625 251.93372345 212.80989838 C250.31625729 221.06041587 248.71485354 229.31393328 247.1215508 237.56914824 C245.74922597 244.6768579 244.36772007 251.78273946 242.97872233 258.88720971 C242.15086076 263.12179725 241.32625457 267.35694844 240.51017761 271.59382439 C239.7426657 275.57606478 238.96362906 279.55588278 238.17585373 283.53416252 C237.88963256 284.98937716 237.60736206 286.44537563 237.32946396 287.90220261 C233.93818645 305.64862794 233.93818645 305.64862794 228.92555749 310.02590197 C223.28477662 313.83260668 218.74755717 314.33313566 212.04282379 314.24507904 C210.49533799 314.25466227 210.49533799 314.25466227 208.91658986 314.26443911 C205.4725204 314.27965432 202.02960765 314.2592497 198.58557892 314.23885345 C196.11140309 314.24235562 193.63722952 314.24801527 191.16306305 314.25566864 C185.14878341 314.26843288 179.13495397 314.25799245 173.12073265 314.2365554 C166.1137077 314.2124995 159.10675957 314.21426252 152.09970249 314.21686131 C139.59687759 314.22054815 127.09421186 314.19975328 114.59143829 314.16561127 C102.46444426 314.13250781 90.33761722 314.11835575 78.21057892 314.12459564 C64.99597679 314.13136171 51.78144451 314.12889436 38.56685269 314.10923624 C37.86792984 314.10819675 37.169007 314.10715727 36.44890467 314.10608628 C35.04524815 314.10399543 33.64159166 314.10188446 32.23793521 314.09975311 C27.35548774 314.0928625 22.47306182 314.09218735 17.5906105 314.09363556 C11.01928309 314.09522665 4.44812804 314.08031502 -2.1231575 314.05440903 C-4.53624503 314.04724053 -6.94935381 314.04516687 -9.36244965 314.04852676 C-12.65319452 314.05223504 -15.94335424 314.03751599 -19.23403168 314.01802826 C-20.67040912 314.02602015 -20.67040912 314.02602015 -22.1358043 314.03417349 C-28.92444596 313.96468851 -33.20782996 312.82726774 -38.2142868 307.94734955 C-40.94641194 304.39627765 -41.74641157 300.78743459 -42.53795624 296.44393158 C-42.69640896 295.65898315 -42.85486168 294.87403473 -43.018116 294.06529999 C-43.35015134 292.41278199 -43.67450442 290.75870345 -43.99149323 289.10323334 C-44.45037664 286.7184308 -44.93371305 284.34023435 -45.42772675 281.96248627 C-46.42678109 277.14551498 -47.39585023 272.32283426 -48.3592453 267.49861908 C-48.53209801 266.63397034 -48.70495071 265.76932159 -48.88304138 264.87847137 C-49.79334675 260.32218236 -50.70087577 255.76534998 -51.60631561 251.20809174 C-52.34962359 247.46968503 -53.09858381 243.73247755 -53.85240936 239.99617767 C-54.77328464 235.43187017 -55.68471835 230.86577222 -56.58946228 226.29824066 C-56.93229247 224.57537917 -57.27831746 222.85314991 -57.62774658 221.13161469 C-62.21449769 198.49911573 -62.21449769 198.49911573 -58.8436203 191.68611908 C-56.15944706 188.22494833 -54.59813298 187.02609509 -50.4686203 185.62361908 C-46.0136203 185.12861908 -46.0136203 185.12861908 -41.4686203 184.62361908 C-41.4686203 156.90361908 -41.4686203 129.18361908 -41.4686203 100.62361908 C-68.1986203 100.62361908 -94.9286203 100.62361908 -122.4686203 100.62361908 Z M66.67547476 149.92500556 C64.82997785 152.66497543 62.76613103 155.2195066 60.7188797 157.81111908 C59.8974688 158.886112 59.07790338 159.96252342 58.26184845 161.04158783 C54.4634172 166.04041984 50.59153778 170.98230485 46.73035431 175.93270111 C43.96331845 179.48396489 41.2056675 183.04094648 38.4845047 186.62752533 C38.02430939 187.23274017 37.56411407 187.83795502 37.08997345 188.4615097 C35.86419114 190.07698102 34.64293203 191.69588163 33.4220047 193.31502533 C31.5313797 195.62361908 31.5313797 195.62361908 29.5313797 196.62361908 C27.13186626 196.73522572 24.7598962 196.78824561 22.3595047 196.79720306 C21.62115387 196.80389008 20.88280304 196.81057709 20.12207794 196.81746674 C18.51678882 196.83152832 16.91147956 196.84341884 15.30615997 196.85341454 C12.76820291 196.86979789 10.23039559 196.89303311 7.69251251 196.91831207 C0.47611671 196.98917178 -6.74033944 197.04930144 -13.95690155 197.10042572 C-18.36834209 197.13215831 -22.77960954 197.17341621 -27.19091034 197.22062111 C-28.87504219 197.23667265 -30.55921393 197.24897958 -32.24340057 197.25752831 C-34.59469509 197.26963743 -36.94557997 197.2937668 -39.2967453 197.32064056 C-39.99706879 197.32122971 -40.69739227 197.32181885 -41.41893768 197.32242584 C-45.38737697 197.28396343 -45.38737697 197.28396343 -48.4686203 199.62361908 C-48.40332934 202.08993967 -48.40332934 202.08993967 -47.83165741 205.00008392 C-47.62950623 206.17657501 -47.42735504 207.3530661 -47.21907806 208.56520844 C-46.97081728 209.91836044 -46.72056053 211.27114731 -46.4686203 212.62361908 C-46.33572224 213.34515419 -46.20282417 214.0666893 -46.0658989 214.81008911 C-44.96661729 220.7471591 -43.81761812 226.67424509 -42.66002655 232.60018158 C-42.47805159 233.53331554 -42.29607662 234.46644951 -42.10858727 235.42786026 C-41.14877246 240.34678448 -40.18541408 245.26500009 -39.21935272 250.18270111 C-38.22333954 255.25716711 -37.24077195 260.33414427 -36.26096439 265.41176033 C-35.50252768 269.3285491 -34.73390103 273.2432876 -33.9624691 277.15753555 C-33.59536426 279.02989583 -33.23218412 280.90303004 -32.87301064 282.77692795 C-32.37216546 285.38515216 -31.85691552 287.99012936 -31.33800507 290.59481049 C-31.12045311 291.75424164 -31.12045311 291.75424164 -30.89850616 292.93709564 C-30.12376489 296.74412215 -29.59371996 299.22825 -26.4686203 301.62361908 C-24.49156638 302.07181944 -24.49156638 302.07181944 -22.28439426 302.00393581 C-21.427456 302.01237575 -20.57051773 302.0208157 -19.68761164 302.02951139 C-18.27488865 302.02049632 -18.27488865 302.02049632 -16.83362579 302.01129913 C-15.83341445 302.01668467 -14.83320311 302.02207021 -13.80268234 302.02761894 C-10.43542687 302.04197998 -7.06856002 302.03477467 -3.70128632 302.02767181 C-1.29356824 302.03337111 1.11414714 302.04033365 3.52185822 302.04846954 C9.39229964 302.06459376 15.26264231 302.0664917 21.13309412 302.06125664 C25.90369014 302.05721887 30.67425451 302.05865381 35.44484901 302.0640049 C36.12325116 302.06475332 36.8016533 302.06550174 37.50061308 302.06627284 C38.87869056 302.06780429 40.25676804 302.06934263 41.6348455 302.07088781 C54.56500059 302.08462315 67.49509521 302.07916798 80.42524893 302.0677026 C92.25939277 302.0577696 104.09338028 302.07071013 115.9275 302.09463679 C128.07300387 302.11900837 140.21843487 302.12864043 152.36396271 302.12198406 C159.18507276 302.11848744 166.00606256 302.12075293 172.82715416 302.13823509 C179.2400049 302.15446676 185.65263019 302.14980565 192.06547546 302.13092995 C194.42296858 302.12722982 196.78048364 302.13039364 199.13795662 302.14081573 C202.34878813 302.15392972 205.55861419 302.14256287 208.76940155 302.12482452 C209.70898616 302.13442953 210.64857077 302.14403454 211.61662763 302.1539306 C216.6167779 302.10924641 216.6167779 302.10924641 221.03983688 299.98565674 C222.86732331 297.09161191 223.50399921 294.69344866 224.15804291 291.3298111 C224.41741135 290.03575851 224.67677979 288.74170593 224.94400787 287.40843964 C225.21472692 285.97639845 225.48513269 284.54429802 225.75525665 283.11214447 C226.05172779 281.60218832 226.34953695 280.09249436 226.64858246 278.58304596 C227.45594755 274.48659369 228.24382629 270.38661309 229.02775979 266.28562093 C229.85101755 261.99386966 230.69036831 257.70526491 231.52751923 253.41620636 C232.93088609 246.21305525 234.32197728 239.00761757 235.70545197 231.80062103 C237.30490958 223.46911401 238.92194396 215.14117139 240.5488475 206.81498343 C242.11379218 198.80449158 243.66791686 190.79194032 245.21655083 182.77828026 C245.87562667 179.3682754 246.53818592 175.95897482 247.20349312 172.55018044 C247.98637869 168.53572196 248.75967787 164.51953121 249.5256176 160.50180626 C249.80816524 159.02777705 250.09393348 157.55436098 250.38315582 156.08162689 C250.77745112 154.07092763 251.1588709 152.05771625 251.5396347 150.04441071 C251.75659154 148.91856599 251.97354837 147.79272127 252.19707966 146.63276005 C252.52757407 143.65787473 252.30092859 141.49745977 251.5313797 138.62361908 C228.90462178 138.31956599 206.27820195 138.09051336 183.64981365 137.95006084 C173.14227333 137.88310405 162.63600425 137.79186859 152.12928009 137.64290619 C142.96855133 137.51308928 133.80874334 137.42940654 124.6471203 137.40046865 C119.79815247 137.38355846 114.95181801 137.34399944 110.10369682 137.24912834 C105.53343021 137.16042485 100.96686251 137.13375357 96.3958168 137.15321922 C94.72478506 137.14966244 93.05362103 137.12405836 91.38333702 137.07394791 C79.1885586 136.72624708 73.38729241 139.78371273 66.67547476 149.92500556 Z M54.5313797 405.62361908 C54.5313797 417.83361908 54.5313797 430.04361908 54.5313797 442.62361908 C58.76723907 442.68420502 63.00309845 442.74479095 67.3673172 442.80721283 C70.7397783 442.85816244 74.11222135 442.91008272 77.48465729 442.96266174 C81.04740083 443.01794062 84.61015142 443.07149943 88.17298126 443.12093353 C92.25868572 443.17770076 96.34423495 443.24223962 100.4298172 443.30721283 C102.35016281 443.33228157 102.35016281 443.33228157 104.30930328 443.35785675 C106.08091324 443.38777458 106.08091324 443.38777458 107.88831329 443.41829681 C109.45384445 443.44161324 109.45384445 443.44161324 111.0510025 443.4654007 C113.5313797 443.62361908 113.5313797 443.62361908 115.5313797 444.62361908 C116.38194915 448.18054585 116.70047777 450.11632486 115.5313797 453.62361908 C112.8200576 454.97928013 110.64829972 454.78592993 107.61292267 454.82894135 C105.75121933 454.85885918 105.75121933 454.85885918 103.85190582 454.88938141 C102.4924609 454.90636568 101.13301465 454.92324449 99.7735672 454.94002533 C98.38636403 454.96059489 96.99916713 454.98159136 95.61197662 455.00299835 C91.95910465 455.05821889 88.30617611 455.10762819 84.65320587 455.15584564 C80.92634796 455.20606083 77.19957229 455.26174679 73.47278595 455.31697845 C66.15905349 455.42455979 58.84525269 455.52600476 51.5313797 455.62361908 C51.2016214 456.23052582 50.8718631 456.83743256 50.53211212 457.46273041 C49.8723941 458.66578827 49.8723941 458.66578827 49.19934845 459.89315033 C48.76646515 460.68568207 48.33358185 461.47821381 47.88758087 462.29476166 C42.99589723 470.69472031 36.00967455 475.64009853 26.9063797 478.93611908 C19.81836382 480.37997417 12.74071711 480.84835442 5.5313797 481.18611908 C4.66126251 481.22930267 3.79114532 481.27248627 2.89466095 481.31697845 C0.77369751 481.42186126 -1.34744463 481.52311983 -3.4686203 481.62361908 C-3.4686203 483.60361908 -3.4686203 485.58361908 -3.4686203 487.62361908 C63.8513797 487.62361908 131.1713797 487.62361908 200.5313797 487.62361908 C200.5313797 485.64361908 200.5313797 483.66361908 200.5313797 481.62361908 C198.68286407 481.55014252 198.68286407 481.55014252 196.7970047 481.47518158 C165.00911329 480.10135267 165.00911329 480.10135267 153.5313797 468.62361908 C138.67324311 449.06740845 143.17998082 432.86486607 142.5313797 405.62361908 C113.4913797 405.62361908 84.4513797 405.62361908 54.5313797 405.62361908 Z " fill="#1F3A71" transform="translate(157.46862030029297,5.376380920410156)"/>
<path d="M0 0 C0.61746094 -0.40992188 1.23492187 -0.81984375 1.87109375 -1.2421875 C10.85449166 -6.95765223 19.20701503 -9.3664412 29.8515625 -7.5 C41.19135545 -4.97366638 49.70574947 -0.20263002 57 9 C60.98407342 16.01007204 63.14999039 22.20088422 63.0625 30.25 C63.05347656 31.32765625 63.04445313 32.4053125 63.03515625 33.515625 C63.01775391 34.74539062 63.01775391 34.74539062 63 36 C63.96421875 35.94199219 64.9284375 35.88398438 65.921875 35.82421875 C67.81679688 35.75654297 67.81679688 35.75654297 69.75 35.6875 C71.00296875 35.62949219 72.2559375 35.57148438 73.546875 35.51171875 C77 36 77 36 79.4609375 38.3203125 C81 41 81 41 80.875 44.1875 C80 47 80 47 78 49 C75.0906442 49.14517744 72.280054 49.18630796 69.375 49.125 C68.17230469 49.11146484 68.17230469 49.11146484 66.9453125 49.09765625 C64.96341477 49.07406223 62.98167019 49.03819065 61 49 C60.86464844 49.59425781 60.72929687 50.18851563 60.58984375 50.80078125 C54.884862 72.76666908 34.52259517 88.66488076 16 100 C15.31357422 100.42506836 14.62714844 100.85013672 13.91992188 101.28808594 C2.69986119 108.0819322 2.69986119 108.0819322 -2.703125 107.91796875 C-5.44259279 106.9246849 -7.56909912 105.61214738 -10 104 C-11.1922621 103.31914397 -12.38926659 102.64655308 -13.58984375 101.98046875 C-21.2834992 97.6418756 -28.31793091 92.79635859 -35 87 C-35.83015625 86.30261719 -36.6603125 85.60523438 -37.515625 84.88671875 C-48.67412458 75.25138859 -56.30804667 64.5242052 -62 51 C-62 50.01 -62 49.02 -62 48 C-63.12019531 48.02320313 -64.24039063 48.04640625 -65.39453125 48.0703125 C-66.86718084 48.08907237 -68.33983763 48.10727234 -69.8125 48.125 C-70.55048828 48.14175781 -71.28847656 48.15851563 -72.04882812 48.17578125 C-75.91246426 48.21074628 -77.70903668 48.19397555 -81 46 C-81.61650485 40.45145631 -81.61650485 40.45145631 -81 38 C-78.63455813 35.43312148 -77.26404897 35.02391748 -73.765625 34.70703125 C-72.60546875 34.74183594 -71.4453125 34.77664062 -70.25 34.8125 C-68.49429688 34.85310547 -68.49429688 34.85310547 -66.703125 34.89453125 C-65.81109375 34.92933594 -64.9190625 34.96414062 -64 35 C-64.06960937 34.00033203 -64.06960937 34.00033203 -64.140625 32.98046875 C-64.56864563 22.05065615 -61.42800052 13.07837845 -54 5 C-38.6362577 -10.5549922 -18.26783985 -11.41176169 0 0 Z M-46.59375 16.82421875 C-50.43378784 22.76561062 -51.0533343 28.0264135 -51 35 C-50.32205887 34.99476318 -49.64411774 34.98952637 -48.94563293 34.98413086 C-41.88859403 34.93743978 -34.83318398 34.94644902 -27.77612305 34.98779297 C-25.14266473 34.9959034 -22.50912283 34.98981547 -19.87573242 34.96923828 C-16.08921477 34.94211525 -12.30593321 34.96606871 -8.51953125 35 C-7.34227982 34.9805835 -6.16502838 34.96116699 -4.95210266 34.94116211 C3.0310827 35.08197848 3.0310827 35.08197848 5.83877563 37.7421875 C7.14742753 39.79196593 8.11896449 41.73728552 9 44 C9.433125 44.99 9.86625 45.98 10.3125 47 C10.539375 47.66 10.76625 48.32 11 49 C11.99 48.13375 12.98 47.2675 14 46.375 C15.31289647 45.22621559 16.65163279 44.1069366 18 43 C18.52658203 42.49871582 19.05316406 41.99743164 19.59570312 41.48095703 C25.52251807 36.30040163 30.83587637 36.10666478 38.5 36.125 C39.60859375 36.104375 40.7171875 36.08375 41.859375 36.0625 C44.57367553 36.01570171 47.28538133 35.99553097 50 36 C50.2742435 27.07063178 49.07319387 19.93896449 42.8125 13.125 C35.94669479 6.98496701 29.23405913 5.29056721 20.0859375 5.62109375 C14.83666153 6.2656251 10.92340452 7.76559724 7.4296875 11.82421875 C6.93726563 12.45972656 6.44484375 13.09523437 5.9375 13.75 C3.70418689 16.53258742 3.20713418 16.94350886 -0.4375 17.9375 C-5.03748785 16.72697688 -6.37215346 14.59109757 -9.2734375 10.98046875 C-12.70568441 7.04347965 -16.02465994 6.22782428 -20.98046875 5.65625 C-31.8291177 5.14752086 -39.75877615 8.26438121 -46.59375 16.82421875 Z M-48 48 C-41.78794296 66.63617112 -25.08823017 79.14868184 -9 89.1875 C-8.37722168 89.58654541 -7.75444336 89.98559082 -7.11279297 90.39672852 C-4.47485762 91.98471265 -2.55301297 93.01011609 0.5625 92.953125 C17.34409942 86.39108933 37.26982134 70.52821741 44.86474609 54.13330078 C45.59642149 52.43062491 46.30051596 50.71615154 47 49 C40.87314445 47.98556662 34.36588771 46.93948475 28.83447266 50.32568359 C24.67441058 53.67175729 21.06443341 57.51303084 17.46191406 61.44067383 C15.11332879 63.94575301 13.32764541 65.81829671 9.859375 66.29296875 C7.90625 66.1953125 5.953125 66.09765625 4 66 C3.34 64.02 2.68 62.04 2 60 C-0.475 54.06 -0.475 54.06 -3 48 C-17.85 48 -32.7 48 -48 48 Z " fill="#1C9FD9" transform="translate(260,187)"/>
<path d="M0 0 C1.47537724 -0.02497757 2.95137506 -0.02202998 4.42676544 0.00215912 C5.23983894 -0.0042297 6.05291244 -0.01061852 6.89062452 -0.01720095 C9.62488725 -0.03250533 12.3577135 -0.01195448 15.09192657 0.0083847 C17.04807263 0.00488513 19.00421585 -0.00077159 20.96035004 -0.00843048 C26.28064007 -0.02271167 31.60041534 -0.00558425 36.9206562 0.01785469 C42.48063367 0.03791784 48.04058881 0.0320865 53.60059357 0.02974701 C62.93877433 0.02980063 72.27675309 0.04958698 81.61487579 0.08162689 C92.42072096 0.11852178 103.22630137 0.12730296 114.03220129 0.12032938 C124.41461873 0.1140305 134.7969451 0.12476727 145.17934418 0.14429474 C149.60354151 0.15248295 154.02769239 0.15517568 158.45189667 0.1536026 C163.65905409 0.15272553 168.86595877 0.16689182 174.07304955 0.19282913 C175.98749759 0.20000923 177.90197248 0.20206574 179.81643105 0.1987114 C182.42322891 0.19501432 185.02928188 0.20968183 187.63599396 0.2292099 C188.39950778 0.22388197 189.16302161 0.21855405 189.94967222 0.21306467 C192.83809787 0.25057898 195.00611886 0.30044606 197.50229359 1.83624744 C198.87334615 4.21756465 198.9006132 5.86888855 198.89214325 8.61597443 C198.89832924 10.16195061 198.89832924 10.16195061 198.9046402 11.73915863 C198.89385437 12.8691629 198.88306854 13.99916718 198.87195587 15.163414 C198.87239395 16.35378769 198.87283203 17.54416138 198.87328339 18.77060699 C198.87155029 22.03494191 198.85649517 25.29889204 198.83556151 28.56315017 C198.8168197 31.97442821 198.81504625 35.38571364 198.81148529 38.79703522 C198.80215745 45.2568808 198.77753379 51.71657424 198.74743682 58.1763528 C198.7139157 65.53055358 198.69741258 72.8847616 198.68235052 80.23901975 C198.65098479 95.36730649 198.59760643 110.4954419 198.5313797 125.62361908 C194.2413797 125.62361908 189.9513797 125.62361908 185.5313797 125.62361908 C185.5313797 88.66361908 185.5313797 51.70361908 185.5313797 13.62361908 C126.7913797 13.62361908 68.0513797 13.62361908 7.5313797 13.62361908 C7.5313797 70.05361908 7.5313797 126.48361908 7.5313797 184.62361908 C2.9113797 184.62361908 -1.7086203 184.62361908 -6.4686203 184.62361908 C-6.53803932 161.37129008 -6.59158987 138.11898601 -6.62405682 114.86657429 C-6.63953184 104.0703027 -6.66063352 93.27409665 -6.69493866 82.47786713 C-6.72482154 73.06889782 -6.74419068 63.65997597 -6.75088578 54.25096053 C-6.75479992 49.26802712 -6.76401193 44.28522949 -6.78581047 39.30233955 C-6.80615802 34.61318103 -6.81245759 29.92421435 -6.80794334 25.23501587 C-6.80876932 23.51328171 -6.81474528 21.7915412 -6.82623672 20.0698452 C-6.84115394 17.71980194 -6.83757702 15.37048379 -6.82938385 13.02042389 C-6.83214923 11.7050253 -6.83491461 10.38962671 -6.83776379 9.03436756 C-6.25773913 3.67515553 -5.60271667 1.0073057 0 0 Z " fill="#1D9ED8" transform="translate(157.46862030029297,5.376380920410156)"/>
<path d="M0 0 C1.04854042 -0.00872064 1.04854042 -0.00872064 2.11826348 -0.01761746 C4.47246906 -0.03227424 6.82564124 -0.01830673 9.17984009 -0.00457001 C10.87986473 -0.0091767 12.5798854 -0.01552806 14.27989769 -0.02347898 C18.96069404 -0.04022732 23.64116555 -0.03190105 28.32196331 -0.01953411 C33.36634751 -0.01050839 38.41067464 -0.024441 43.45504761 -0.0354538 C53.34061832 -0.05327015 63.22606778 -0.04938517 73.11164331 -0.03780323 C81.14356134 -0.02878142 89.17544531 -0.02753948 97.20736694 -0.0318985 C98.34911892 -0.03251143 99.4908709 -0.03312436 100.66722143 -0.03375587 C102.98643638 -0.03503473 105.30565132 -0.03633158 107.62486625 -0.03764623 C129.38852037 -0.04906116 151.15210718 -0.03592401 172.91575027 -0.01444477 C191.60293502 0.00342703 210.2900204 0.00032318 228.97720337 -0.01811981 C250.66127726 -0.03951041 272.34529211 -0.04796244 294.02937508 -0.03567076 C296.34021122 -0.03439652 298.65104738 -0.03313904 300.96188354 -0.0318985 C302.66748949 -0.03097285 302.66748949 -0.03097285 304.40755212 -0.03002849 C312.43279774 -0.02657016 320.45800601 -0.03241434 328.48324585 -0.04181671 C338.25908717 -0.05301797 348.03479997 -0.05003616 357.81062651 -0.02869374 C362.80147853 -0.01815806 367.79211602 -0.01410423 372.78296661 -0.02729034 C377.34754353 -0.03916811 381.9117061 -0.0327284 386.47624516 -0.01138014 C388.13163251 -0.0068944 389.78705452 -0.00922425 391.44241977 -0.01888329 C393.68520099 -0.03097081 395.9265455 -0.01865244 398.16925049 0 C399.41712152 0.00064941 400.66499256 0.00129882 401.95067787 0.00196791 C405.08462524 0.50336456 405.08462524 0.50336456 407.52464867 2.30826235 C409.08462524 4.50336456 409.08462524 4.50336456 408.95962524 8.12836456 C408.08462524 11.50336456 408.08462524 11.50336456 406.08462524 13.50336456 C403.18510014 13.75521356 403.18510014 13.75521356 399.38131809 13.75784016 C398.33072469 13.76264987 398.33072469 13.76264987 397.25890717 13.76755676 C394.88827777 13.7759247 392.51789657 13.76990899 390.14726257 13.76406097 C388.44000548 13.76707857 386.73274974 13.77096607 385.02549642 13.77565354 C380.31553234 13.78599286 375.60564386 13.78373673 370.89567339 13.77947295 C365.823339 13.77701643 360.75102332 13.78600645 355.67869568 13.79351044 C345.73439668 13.80628945 335.79012465 13.80804716 325.84581883 13.80571017 C317.76665465 13.80393044 309.68749869 13.80566923 301.60833549 13.80993462 C300.46047309 13.81052981 299.31261069 13.81112499 298.12996457 13.81173822 C295.79842683 13.81294991 293.46688909 13.81416405 291.13535135 13.8153806 C269.24776546 13.82626845 247.36019496 13.82408774 225.4726082 13.81799575 C205.42851064 13.81282533 185.38446165 13.82408314 165.3403737 13.84309397 C144.78197569 13.86244383 124.22360069 13.8707334 103.6651935 13.86697072 C92.11404506 13.86505435 80.56293799 13.86758847 69.01179695 13.88168526 C59.17844579 13.89356375 49.34516144 13.89504382 39.51180942 13.88289509 C34.49074473 13.87698149 29.46980246 13.87597499 24.44874573 13.88789749 C19.85769041 13.89867264 15.26686096 13.89575379 10.67581659 13.88163581 C9.00961612 13.87896561 7.34339842 13.88142733 5.67721475 13.88937167 C3.42245661 13.89938114 1.16849842 13.89113996 -1.08622646 13.87809467 C-2.34163689 13.87814969 -3.59704732 13.8782047 -4.89050049 13.87826139 C-7.91537476 13.50336456 -7.91537476 13.50336456 -9.81485277 12.16353768 C-11.57073592 9.51473098 -11.35668075 7.59250655 -10.91537476 4.50336456 C-7.73658594 0.19901325 -5.19911022 0.00270569 0 0 Z " fill="#203B72" transform="translate(56.915374755859375,352.4966354370117)"/>
<path d="M0 0 C1.72476563 -0.00773437 1.72476563 -0.00773437 3.484375 -0.015625 C4.68578125 -0.00015625 5.8871875 0.0153125 7.125 0.03125 C8.32640625 0.01578125 9.5278125 0.0003125 10.765625 -0.015625 C11.91546875 -0.01046875 13.0653125 -0.0053125 14.25 0 C15.83167969 0.00676758 15.83167969 0.00676758 17.4453125 0.01367188 C20.125 0.53125 20.125 0.53125 21.97387695 2.37597656 C23.53022552 5.2899628 23.41948951 7.50023825 23.3125 10.78125 C23.27189453 12.39773437 23.27189453 12.39773437 23.23046875 14.046875 C23.19566406 14.86671875 23.16085938 15.6865625 23.125 16.53125 C23.94484375 16.49644531 24.7646875 16.46164063 25.609375 16.42578125 C26.68703125 16.39871094 27.7646875 16.37164062 28.875 16.34375 C29.94234375 16.30894531 31.0096875 16.27414063 32.109375 16.23828125 C35.56937989 16.57442162 36.68761039 17.10065068 39.125 19.53125 C39.61083984 22.11914062 39.61083984 22.11914062 39.5859375 25.1875 C39.58207031 26.29222656 39.57820313 27.39695312 39.57421875 28.53515625 C39.53748047 30.26572266 39.53748047 30.26572266 39.5 32.03125 C39.49871094 33.18496094 39.49742187 34.33867188 39.49609375 35.52734375 C39.40596288 44.10980568 39.40596288 44.10980568 37.125 47.53125 C33.97569107 48.58101964 31.73685544 48.63256595 28.4375 48.59375 C27.44363281 48.58472656 26.44976562 48.57570312 25.42578125 48.56640625 C24.28689453 48.54900391 24.28689453 48.54900391 23.125 48.53125 C23.14820313 49.27890625 23.17140625 50.0265625 23.1953125 50.796875 C23.21335938 51.78171875 23.23140625 52.7665625 23.25 53.78125 C23.27320313 54.75578125 23.29640625 55.7303125 23.3203125 56.734375 C23.12145953 59.58194951 22.67938946 61.16162132 21.125 63.53125 C16.88929299 65.64910351 11.34136657 64.80503231 6.6875 64.84375 C5.52927734 64.87275391 4.37105469 64.90175781 3.17773438 64.93164062 C2.06849609 64.94001953 0.95925781 64.94839844 -0.18359375 64.95703125 C-1.71197876 64.97890503 -1.71197876 64.97890503 -3.27124023 65.0012207 C-5.875 64.53125 -5.875 64.53125 -7.71240234 62.69311523 C-9.28164643 59.77508575 -9.16979658 57.57167842 -9.0625 54.28125 C-9.03542969 53.20359375 -9.00835937 52.1259375 -8.98046875 51.015625 C-8.94566406 50.19578125 -8.91085938 49.3759375 -8.875 48.53125 C-9.61105469 48.56605469 -10.34710938 48.60085937 -11.10546875 48.63671875 C-12.08128906 48.66378906 -13.05710938 48.69085938 -14.0625 48.71875 C-15.50689453 48.77095703 -15.50689453 48.77095703 -16.98046875 48.82421875 C-20.46321873 48.47171369 -22.12344486 47.6883439 -24.875 45.53125 C-25.50610352 42.8515625 -25.50610352 42.8515625 -25.50390625 39.65625 C-25.50583984 38.50640625 -25.50777344 37.3565625 -25.50976562 36.171875 C-25.48591797 34.97046875 -25.46207031 33.7690625 -25.4375 32.53125 C-25.44845703 31.32984375 -25.45941406 30.1284375 -25.47070312 28.890625 C-25.39639741 20.05319879 -25.39639741 20.05319879 -23.02807617 17.68237305 C-20.11541698 16.12514569 -17.90515192 16.23678852 -14.625 16.34375 C-13.00851563 16.38435547 -13.00851563 16.38435547 -11.359375 16.42578125 C-10.53953125 16.46058594 -9.7196875 16.49539062 -8.875 16.53125 C-8.90980469 15.71140625 -8.94460937 14.8915625 -8.98046875 14.046875 C-9.00753906 12.96921875 -9.03460938 11.8915625 -9.0625 10.78125 C-9.09730469 9.71390625 -9.13210937 8.6465625 -9.16796875 7.546875 C-8.57112315 1.40334434 -5.87792413 0.02515004 0 0 Z M4.125 13.53125 C4.07601562 14.44648437 4.02703125 15.36171875 3.9765625 16.3046875 C3.90179688 17.49320313 3.82703125 18.68171875 3.75 19.90625 C3.68039063 21.08960938 3.61078125 22.27296875 3.5390625 23.4921875 C3.125 26.53125 3.125 26.53125 1.125 28.53125 C-1.9140625 28.9453125 -1.9140625 28.9453125 -5.5 29.15625 C-6.68851563 29.23101562 -7.87703125 29.30578125 -9.1015625 29.3828125 C-10.01679688 29.43179688 -10.93203125 29.48078125 -11.875 29.53125 C-11.875 31.18125 -11.875 32.83125 -11.875 34.53125 C-10.73611328 34.62212891 -10.73611328 34.62212891 -9.57421875 34.71484375 C-8.58035156 34.79863281 -7.58648437 34.88242188 -6.5625 34.96875 C-5.57636719 35.04996094 -4.59023437 35.13117188 -3.57421875 35.21484375 C-0.875 35.53125 -0.875 35.53125 2.125 36.53125 C3.54134833 39.36394666 3.4713005 42.00591438 3.6875 45.15625 C3.77128906 46.34476563 3.85507813 47.53328125 3.94140625 48.7578125 C4.00199219 49.67304687 4.06257813 50.58828125 4.125 51.53125 C5.775 51.53125 7.425 51.53125 9.125 51.53125 C9.17398438 50.78359375 9.22296875 50.0359375 9.2734375 49.265625 C9.34820312 48.28078125 9.42296875 47.2959375 9.5 46.28125 C9.56960937 45.30671875 9.63921875 44.3321875 9.7109375 43.328125 C10.11670436 40.58728469 10.58122128 38.82066334 12.125 36.53125 C15.13278521 35.52865493 17.66320647 35.22810358 20.8125 34.96875 C21.80636719 34.88496094 22.80023438 34.80117187 23.82421875 34.71484375 C24.96310547 34.62396484 24.96310547 34.62396484 26.125 34.53125 C26.125 32.88125 26.125 31.23125 26.125 29.53125 C25.20976562 29.47066406 24.29453125 29.41007812 23.3515625 29.34765625 C22.16304687 29.26386719 20.97453125 29.18007812 19.75 29.09375 C18.56664062 29.01253906 17.38328125 28.93132812 16.1640625 28.84765625 C13.125 28.53125 13.125 28.53125 11.125 27.53125 C10.12240493 24.52346479 9.82185358 21.99304353 9.5625 18.84375 C9.43681641 17.35294922 9.43681641 17.35294922 9.30859375 15.83203125 C9.24800781 15.07277344 9.18742187 14.31351563 9.125 13.53125 C7.475 13.53125 5.825 13.53125 4.125 13.53125 Z " fill="#1C9FD9" transform="translate(197.875,36.46875)"/>
<path d="M0 0 C0.61746094 -0.40992188 1.23492187 -0.81984375 1.87109375 -1.2421875 C10.85449166 -6.95765223 19.20701503 -9.3664412 29.8515625 -7.5 C41.19135545 -4.97366638 49.70574947 -0.20263002 57 9 C62.48400429 18.64923612 63.10978026 26.02197396 63 37 C58.71 37 54.42 37 50 37 C49.91363281 36.0821875 49.82726562 35.164375 49.73828125 34.21875 C48.67956401 24.9719719 47.10113411 18.5294401 40.125 12.1875 C32.52400741 6.86680519 26.23933649 5.99373563 17 7 C11.98615088 8.3674134 9.08735323 10.68487529 5.9375 14.75 C3.70418689 17.53258742 3.20713418 17.94350886 -0.4375 18.9375 C-5.03748785 17.72697688 -6.37215346 15.59109757 -9.2734375 11.98046875 C-12.70568441 8.04347965 -16.02465994 7.22782428 -20.98046875 6.65625 C-29.67367053 6.24859693 -36.16970385 7.87582765 -42.84375 13.57421875 C-48.80681137 19.84420239 -50.24044909 27.64493997 -51 36 C-55.29 36 -59.58 36 -64 36 C-64.529694 24.74400245 -62.95709315 15.74764185 -55.6953125 6.84375 C-40.2025634 -10.00550708 -19.37630966 -12.10421319 0 0 Z " fill="#1F3B72" transform="translate(260,187)"/>
<path d="M0 0 C4.62 0 9.24 0 14 0 C14.804375 1.588125 15.60875 3.17625 16.4375 4.8125 C24.75486177 19.91915009 37.13506628 30.21139002 51.5 39.25 C52.26562256 39.74048828 53.03124512 40.23097656 53.82006836 40.73632812 C57.95589379 43.29654366 57.95589379 43.29654366 62.65625 44.01171875 C82.4275792 35.47709498 98.82794542 19.71658043 109 1 C113.62 1 118.24 1 123 1 C117.33667548 23.9864348 97.40167201 40.12691938 78 52 C77.31357422 52.42506836 76.62714844 52.85013672 75.91992188 53.28808594 C64.69986119 60.0819322 64.69986119 60.0819322 59.296875 59.91796875 C56.55740721 58.9246849 54.43090088 57.61214738 52 56 C50.8077379 55.31914397 49.61073341 54.64655308 48.41015625 53.98046875 C40.7165008 49.6418756 33.68206909 44.79635859 27 39 C26.16984375 38.30261719 25.3396875 37.60523438 24.484375 36.88671875 C13.32587542 27.25138859 5.69195333 16.5242052 0 3 C0 2.01 0 1.02 0 0 Z " fill="#1F3A71" transform="translate(198,235)"/>
<path d="M0 0 C0.74649811 -0.0049649 1.49299622 -0.00992981 2.26211548 -0.01504517 C4.73668329 -0.02967528 7.21118703 -0.03646964 9.68579102 -0.04199219 C11.40210472 -0.04774228 13.1184184 -0.05350003 14.83473206 -0.05926514 C18.43523458 -0.06977709 22.03571475 -0.0756187 25.63623047 -0.07910156 C30.25453828 -0.08459132 34.87255201 -0.10862865 39.49076748 -0.13707352 C43.03632985 -0.15567599 46.58182099 -0.16090418 50.12742805 -0.16243744 C51.83031894 -0.16546916 53.53320842 -0.17351512 55.23605156 -0.18662262 C57.61593039 -0.20363603 59.9950854 -0.20181491 62.375 -0.1953125 C63.43411842 -0.20913467 63.43411842 -0.20913467 64.51463318 -0.22323608 C67.3859386 -0.19860173 69.28552318 -0.17586696 71.65467834 1.53497314 C73.21471366 3.84642898 73.68545803 5.35808511 73.75219727 8.16113281 C72.22328186 10.78674316 72.22328186 10.78674316 69.75219727 13.16113281 C67.05085268 13.65721835 64.9750724 13.82741583 62.27734375 13.77636719 C61.53055359 13.7819162 60.78376343 13.78746521 60.01434326 13.79318237 C57.55000302 13.80497748 55.08750212 13.78070975 52.62329102 13.75488281 C50.90983667 13.75317176 49.1963797 13.75323733 47.48292542 13.75500488 C43.89412349 13.7533518 40.30594637 13.73465475 36.71728516 13.703125 C32.11463153 13.66341711 27.51279514 13.65908314 22.91000271 13.66658783 C19.37295529 13.66965532 15.83609203 13.65754545 12.29908943 13.64045715 C10.60180885 13.63342107 8.9045074 13.63030336 7.20721245 13.63114929 C4.83697553 13.62935398 2.46772318 13.60799746 0.09765625 13.58105469 C-0.95674904 13.58545059 -0.95674904 13.58545059 -2.03245544 13.5899353 C-4.89314554 13.53969301 -6.79508453 13.48707052 -9.15611267 11.78723145 C-10.65448739 9.55536623 -11.0519262 7.83811218 -11.24780273 5.16113281 C-9.16014416 -0.62007555 -5.4740177 0.00864165 0 0 Z " fill="#1C9ED9" transform="translate(260.247802734375,105.8388671875)"/>
<path d="M0 0 C0.74489182 -0.00817749 1.48978363 -0.01635498 2.25724792 -0.02478027 C4.7269917 -0.04963212 7.19667808 -0.06614836 9.66650391 -0.08056641 C10.50918446 -0.08589008 11.35186501 -0.09121376 12.22008133 -0.09669876 C16.67910096 -0.12342758 21.1380926 -0.14280457 25.59716797 -0.15722656 C30.20660812 -0.17388731 34.81533506 -0.21867713 39.42450523 -0.26959801 C42.96581867 -0.30322201 46.50696167 -0.31479852 50.04841995 -0.32045364 C51.7477324 -0.32717803 53.44703316 -0.34243097 55.14619064 -0.36634445 C57.52383684 -0.39790139 59.89954387 -0.39804828 62.27734375 -0.390625 C62.97982742 -0.40703033 63.6823111 -0.42343567 64.40608215 -0.44033813 C68.11665582 -0.39288783 69.52109764 -0.04414026 72.24014282 2.5652771 C73.76806641 5.19287109 73.76806641 5.19287109 73.70556641 7.81787109 C72.65110534 10.48917247 72.09153328 11.51293683 69.76806641 13.19287109 C67.23205327 13.48364662 64.94238107 13.59269665 62.40673828 13.56518555 C61.66009415 13.56883621 60.91345001 13.57248688 60.1441803 13.57624817 C57.674828 13.58435765 55.20613111 13.57074069 52.73681641 13.55615234 C51.02193197 13.55563378 49.30704693 13.55615133 47.59216309 13.55766296 C43.99754974 13.55757322 40.40316059 13.54714006 36.80859375 13.52905273 C32.19819477 13.50636547 27.58812345 13.50582125 22.97768402 13.51257038 C19.43639203 13.51590997 15.8951749 13.50928046 12.35389709 13.49944115 C10.65381766 13.49558868 8.95372991 13.49444112 7.25364685 13.49602699 C4.87873433 13.49639736 2.50424374 13.48378562 0.12939453 13.4675293 C-0.57511337 13.47000671 -1.27962128 13.47248413 -2.00547791 13.47503662 C-5.64176146 13.43526013 -7.11607854 13.2701078 -10.23193359 11.19287109 C-11.12755474 8.02375011 -11.52108573 6.01584255 -10.41943359 2.88037109 C-7.85714065 -0.76078204 -4.03719364 0.02434176 0 0 Z " fill="#1C9FD9" transform="translate(260.23193359375,75.80712890625)"/>
<path d="M0 0 C1.26811523 -0.0157608 2.53623047 -0.03152161 3.84277344 -0.04776001 C5.22331614 -0.0388102 6.6038509 -0.0285552 7.984375 -0.01708984 C9.40397558 -0.02045938 10.82357334 -0.02531314 12.24316406 -0.03158569 C15.21577469 -0.03895082 18.18763319 -0.02826482 21.16015625 -0.00488281 C24.96718204 0.0236068 28.77244559 0.0072006 32.57940674 -0.02274513 C35.51006303 -0.04082907 38.44030272 -0.03505552 41.37097168 -0.02210617 C42.7743755 -0.01877508 44.17781738 -0.02284893 45.58117676 -0.03450394 C47.54369363 -0.04722658 49.50634344 -0.02438982 51.46875 0 C52.58475586 0.00397797 53.70076172 0.00795593 54.85058594 0.01205444 C57.734375 0.64697266 57.734375 0.64697266 60.12988281 3.02334595 C61.734375 5.64697266 61.734375 5.64697266 61.671875 8.27197266 C60.63505683 10.89857868 59.98064338 11.95532964 57.734375 13.64697266 C54.96411133 14.02792358 54.96411133 14.02792358 51.56640625 14.03515625 C50.29498779 14.04461273 49.02356934 14.05406921 47.71362305 14.06381226 C46.32470387 14.05844256 44.93578752 14.05228962 43.546875 14.04541016 C42.12345226 14.04743104 40.70003053 14.05034261 39.27661133 14.05410767 C36.29400776 14.05853037 33.31167379 14.05210201 30.32910156 14.03808594 C26.50552409 14.02099369 22.68257834 14.03083521 18.85902405 14.04880333 C15.91991413 14.05964284 12.98095403 14.05619415 10.0418396 14.04841995 C8.63202846 14.04641839 7.22220372 14.04887572 5.81240845 14.05585861 C3.84238952 14.06347489 1.87232291 14.04980845 -0.09765625 14.03515625 C-1.21889893 14.03276947 -2.3401416 14.03038269 -3.49536133 14.02792358 C-6.265625 13.64697266 -6.265625 13.64697266 -8.0925293 12.27114868 C-9.74913103 9.97754824 -10.19801787 8.48647203 -10.265625 5.64697266 C-7.37566941 0.92138738 -5.46957892 0.01949613 0 0 Z " fill="#1C9ED9" transform="translate(272.265625,45.35302734375)"/>
<path d="M0 0 C0.83402344 -0.00386719 1.66804687 -0.00773437 2.52734375 -0.01171875 C3.82865234 0.00568359 3.82865234 0.00568359 5.15625 0.0234375 C6.02378906 0.01183594 6.89132812 0.00023437 7.78515625 -0.01171875 C9.03619141 -0.00591797 9.03619141 -0.00591797 10.3125 0 C11.45428711 0.00507568 11.45428711 0.00507568 12.61914062 0.01025391 C15.21333824 0.50459406 16.09488964 1.29254361 17.65625 3.3984375 C18.09375 6.8984375 18.09375 6.8984375 17.65625 10.3984375 C15.13416803 13.25635806 13.52511566 13.41160256 9.6875 13.796875 C8.17708398 13.80481064 6.66651057 13.79651449 5.15625 13.7734375 C4.39699219 13.78503906 3.63773438 13.79664063 2.85546875 13.80859375 C-0.42663669 13.79134976 -2.91346209 13.62264368 -5.84765625 12.09375 C-7.34375 10.3984375 -7.34375 10.3984375 -7.78125 6.8984375 C-7.34375 3.3984375 -7.34375 3.3984375 -6.08789062 1.70458984 C-3.90933228 0.07311068 -2.70256353 0.01201394 0 0 Z " fill="#203A71" transform="translate(251.34375,375.6015625)"/>
</svg>
